<svg width="43" height="43" viewBox="0 0 43 43" fill="none" xmlns="http://www.w3.org/2000/svg">
<mask id="mask0_4_23" style="mask-type:alpha" maskUnits="userSpaceOnUse" x="0" y="0" width="43" height="43">
<path d="M0 0.747192H42.8612V42.3287H0V0.747192Z" fill="#0AC855"/>
</mask>
<g mask="url(#mask0_4_23)">
<path fill-rule="evenodd" clip-rule="evenodd" d="M38.4119 38.4064C30.286 38.833 28.6256 29.5348 25.4376 29.601C24.0791 29.6295 23.0084 31.0498 23.4786 32.7051C23.7372 33.6151 24.4544 34.9496 24.9063 35.7778C26.5003 38.7001 24.1438 42.0071 21.3861 42.2868C16.8034 42.7517 14.8918 40.0932 15.0101 37.3718C15.143 34.3167 17.7334 31.195 15.0766 29.8668C12.2924 28.4747 10.029 33.9182 7.36473 35.1331C4.95334 36.2328 1.60594 35.3802 0.415893 32.7025C-0.419967 30.8209 -0.267958 27.1977 3.45362 25.8153C5.77826 24.9519 10.9586 26.9445 11.2244 24.4207C11.5306 21.5114 5.78222 21.266 4.05147 20.5684C0.989037 19.3342 -0.818471 16.6933 0.5977 13.8602C1.66025 11.7351 4.78662 10.8704 7.17293 11.8013C10.0317 12.9165 10.4905 15.8816 11.9552 17.1146C13.2169 18.1774 14.9437 18.3103 16.073 17.5797C16.9058 17.0407 17.1831 15.8569 16.8689 14.7755C16.4521 13.3399 15.3459 12.444 14.2668 11.5663C12.3463 10.0051 9.63506 8.66267 11.2751 4.40133C12.6194 0.909091 16.5622 0.783298 16.5622 0.783298C18.1287 0.607148 19.5315 1.08015 20.6745 2.1014C22.2027 3.46665 22.5004 5.29151 22.2446 7.23839C22.0109 9.01554 21.382 10.572 21.054 12.3328C20.6734 14.377 21.766 16.4368 23.8437 16.517C26.5767 16.6226 27.3961 14.522 27.7305 13.1905C28.2201 11.2423 28.8627 9.43365 30.6707 8.29453C33.2656 6.65959 36.8701 7.01792 38.5424 10.1601C39.8652 12.6464 39.4405 16.069 37.4114 17.938C36.501 18.7763 35.4064 19.0719 34.2224 19.0802C32.5244 19.0922 30.8273 19.0506 29.2512 19.8451C28.1782 20.3858 27.7107 21.267 27.7109 22.4479C27.7109 23.5989 28.3101 24.3507 29.281 24.8399C31.1096 25.7616 33.1281 25.95 35.1035 26.2959C37.9681 26.7975 40.4868 27.8065 42.1038 30.4648C42.1183 30.4882 42.1325 30.5118 42.1463 30.5355C44.0034 33.6828 42.0612 38.2146 38.4119 38.4064Z" fill="#0AC855"/>
</g>
</svg>
